<svg width="779" height="779" xmlns="http://www.w3.org/2000/svg" xmlns:xlink="http://www.w3.org/1999/xlink" overflow="hidden"><defs><clipPath id="clip0"><rect x="21" y="16" width="779" height="779"/></clipPath></defs><g clip-path="url(#clip0)" transform="translate(-21 -16)"><path d="M410.5 16.0002 393.15 16.3794 375.994 17.5073 359.049 19.368 342.33 21.9453 325.852 25.2237 309.633 29.1872 293.686 33.8201 278.03 39.1064 262.678 45.0303 247.647 51.5758 232.953 58.7275 218.612 66.4692 204.639 74.7856 191.05 83.6599 177.861 93.0771 165.089 103.021 152.749 113.476 140.856 124.427 129.426 135.856 118.476 147.749 108.021 160.09 98.0769 172.862 88.6597 186.05 79.7854 199.639 71.469 213.612 63.7273 227.953 56.5756 242.647 50.0301 257.678 44.1062 273.03 38.8199 288.687 34.187 304.633 30.2235 320.853 26.9451 337.33 24.3678 354.049 22.5071 370.995 21.3792 388.15 21 405.5 21.3792 422.85 22.5071 440.005 24.3678 456.951 26.9451 473.67 30.2235 490.147 34.187 506.367 38.8199 522.313 44.1062 537.97 50.0301 553.322 56.5756 568.353 63.7273 583.047 71.469 597.388 79.7854 611.361 88.6597 624.95 98.0769 638.138 108.021 650.91 118.476 663.251 129.426 675.144 140.856 686.573 152.749 697.524 165.089 707.979 177.861 717.923 191.05 727.34 204.639 736.214 218.612 744.531 232.953 752.272 247.647 759.424 262.678 765.97 278.03 771.894 293.686 777.18 309.633 781.813 325.852 785.776 342.33 789.055 359.049 791.632 375.994 793.493 393.15 794.621 410.5 795 427.849 794.621 445.005 793.493 461.95 791.632 478.669 789.055 495.147 785.776 511.367 781.813 527.313 777.18 542.97 771.894 558.322 765.97 573.353 759.424 588.047 752.272 602.388 744.531 616.361 736.214 629.95 727.34 643.138 717.923 655.91 707.979 668.251 697.524 680.144 686.573 691.573 675.144 702.523 663.251 712.978 650.91 722.923 638.138 732.34 624.95 741.214 611.361 749.53 597.388 757.272 583.047 764.424 568.353 770.969 553.322 776.893 537.97 782.18 522.313 786.812 506.367 790.776 490.147 794.054 473.67 796.632 456.951 798.492 440.005 799.62 422.85 800 405.5 799.62 388.15 798.492 370.995 796.632 354.049 794.054 337.33 790.776 320.853 786.812 304.633 782.18 288.687 776.893 273.03 770.969 257.678 764.424 242.647 757.272 227.953 749.53 213.612 741.214 199.639 732.34 186.05 722.923 172.862 712.978 160.09 702.523 147.749 691.573 135.856 680.144 124.427 668.251 113.476 655.91 103.021 643.138 93.0771 629.95 83.6599 616.361 74.7856 602.388 66.4692 588.047 58.7275 573.353 51.5758 558.322 45.0303 542.97 39.1064 527.313 33.8201 511.367 29.1872 495.147 25.2237 478.669 21.9453 461.95 19.368 445.005 17.5073 427.849 16.3794 410.5 16.0002Z" fill="#FFFFFF" fill-rule="evenodd"/><path d="M568.856 252 556.295 265.653 551.956 278.535 545.778 266.367 539.063 257.283 532.879 252.861 528.297 254.68 520.357 270.852 515.942 287.432 515.022 303.057 517.564 316.366 512.241 319.119 507.05 322.034 494.076 314.333 479.641 307.068 463.923 300.389 447.101 294.445 429.353 289.386 410.856 285.362 391.789 282.522 372.329 281.016 352.656 280.994 332.947 282.606 313.379 286.001 296.987 290.897 281.628 297.884 267.485 306.687 254.743 317.031 243.587 328.64 234.199 341.239 226.765 354.555 221.467 368.311 218.49 382.233 218.017 396.045 220.234 409.472 225.323 422.24 217.05 423.94 200.236 428.736 186.53 434.159 173.445 441.227 161.228 450.322 150.698 462.136 143.642 477.064 142 493.584 143.234 501.571 154.05 523.038 165.011 533.065 177.155 540.252 208.919 551.788 228.291 556.121 247.319 558.948 265.943 560.459 284.104 560.846 301.741 560.298 318.796 559.008 335.208 557.165 350.918 554.961 389.493 548.869 411.471 545.564 431.725 542.758 450.178 540.538 466.755 538.992 481.38 538.205 499.422 538.307 512.491 539.673 520.559 540.994 523.6 540.959 500.229 531.836 481.526 529.674 466.418 529.176 449.376 529.502 430.496 530.56 409.871 532.261 387.594 534.513 363.758 537.227 344.902 539.479 325.444 541.349 305.277 542.49 284.295 542.555 267.101 541.713 249.518 540.003 231.785 537.16 214.143 532.92 196.83 527.016 177.246 516.365 165.183 501.775 163.049 492.134 164.131 482.907 175.536 466.365 189.435 457.082 205.555 449.873 223.168 444.826 241.548 442.033 243.326 443.502 255.689 456.221 269.284 467.437 284.059 477.008 299.958 484.795 316.927 490.655 323.904 491.496 330.158 490.311 335.28 487.47 338.862 483.34 344.395 485.427 359.339 478.857 363.356 464.221 362.291 460.13 378.939 459.984 395.669 459.585 412.294 458.954 428.628 458.117 438.128 468.666 448.605 478.298 460.038 486.937 472.411 494.515 480.852 497.174 488.679 496.45 494.869 492.903 498.397 487.091 499.098 482.402 498.649 477.851 497.176 473.591 494.804 469.777 505.178 472.822 515.79 475.115 526.619 476.633 537.643 477.352 546.371 475.876 553.006 471.67 556.894 465.697 557.378 458.917 554.835 452.586 550.434 447.699 544.734 444.509 538.293 443.264 532.729 442.976 542.761 437.187 552.313 430.498 561.669 423.414 571.113 416.44 588.087 407.071 605.809 400.968 624.069 396.211 642.656 390.882 656.718 386.129 669.339 378.719 677.807 367.553 677.338 362.549 672.649 357.883 659.073 348.557 645.865 338.726 632.605 329.028 618.87 320.097 604.24 312.569 592.741 308.324 591.158 291.423 585.212 274.285 577.059 260.086 568.856 252Z" fill="#010202" fill-rule="evenodd"/></g></svg>